<svg width="40" height="40" fill="none" xmlns="http://www.w3.org/2000/svg"><g clip-path="url(#clip0)" fill="#fff"><path d="M38.652 10.402a2.476 2.476 0 00-1.264-1.426L19.447.25a2.493 2.493 0 00-3.33 1.15l-.837 1.721-4.9-.959a2.5 2.5 0 00-2.932 1.972l-.622 3.179H3.74a2.493 2.493 0 00-2.491 2.49V37.51A2.493 2.493 0 003.74 40h19.951a2.494 2.494 0 002.491-2.49v-.006a.779.779 0 00.235-.285l12.12-24.914a2.474 2.474 0 00.115-1.903zm-21.13-8.318a.929.929 0 011.241-.428l7.39 3.594-9.286-1.817.656-1.349zm-8.54 2.35a.936.936 0 011.097-.737l5.477 1.072.03.006 14.059 2.75a.928.928 0 01.596.396c.14.207.19.456.142.702l-4.201 21.46V9.805a2.494 2.494 0 00-2.49-2.491H8.417l.564-2.88zM24.619 37.51a.93.93 0 01-.928.928H3.741a.93.93 0 01-.929-.928V9.805a.93.93 0 01.929-.928h19.95a.93.93 0 01.928.928V37.51zm12.514-25.888L27.52 31.38l4.396-22.458a2.52 2.52 0 00.019-.861l4.77 2.32c.222.108.39.296.47.53a.921.921 0 01-.042.71z"/><path d="M13.607 28.848a.78.78 0 01-.44-.135 27.957 27.957 0 01-3.065-2.486c-2.133-2.01-3.215-3.79-3.215-5.294a3.936 3.936 0 016.77-2.724 3.918 3.918 0 012.785-1.155 3.936 3.936 0 013.931 3.931c0 1.485-1.09 3.251-3.242 5.251a28.536 28.536 0 01-3.086 2.478.78.78 0 01-.438.134zm-2.789-10.284a2.371 2.371 0 00-2.369 2.369c0 1.82 3 4.619 5.16 6.18 2.176-1.561 5.202-4.346 5.202-6.128a2.372 2.372 0 00-2.37-2.368c-.888 0-1.694.49-2.104 1.281a.78.78 0 01-1.394-.013 2.357 2.357 0 00-2.125-1.32zM5.09 13.352a.781.781 0 01-.78-.781v-1.176a.781.781 0 111.562 0v1.176c0 .431-.35.781-.781.781zm17.25 23.161a.781.781 0 01-.78-.78v-1.177a.781.781 0 111.562 0v1.176a.78.78 0 01-.781.781zm-2.567-4.526a.786.786 0 01-.781-.781.768.768 0 01.06-.3.811.811 0 01.169-.253.786.786 0 01.4-.214.766.766 0 01.451.045c.047.02.093.043.136.071a.831.831 0 01.288.351.789.789 0 01-.288.948.838.838 0 01-.282.117.788.788 0 01-.153.016zm-2.98 0H7.486a.781.781 0 110-1.562h9.306a.781.781 0 110 1.562z"/></g><defs><clipPath id="clip0"><path fill="#fff" d="M0 0h40v40H0z"/></clipPath></defs></svg>